<?xml version="1.0" encoding="utf-8"?>
<!-- Generator: Adobe Illustrator 25.2.0, SVG Export Plug-In . SVG Version: 6.00 Build 0)  -->
<svg version="1.1" xmlns="http://www.w3.org/2000/svg" xmlns:xlink="http://www.w3.org/1999/xlink" x="0px" y="0px"
	 viewBox="0 0 946.4 250.5" style="enable-background:new 0 0 946.4 250.5;" xml:space="preserve">
<style type="text/css">
	.st0{fill:url(#SVGID_1_);stroke:#FFFFFF;stroke-width:2;stroke-miterlimit:10;}
	.st1{fill:url(#SVGID_2_);}
	.st2{fill:#262262;}
</style>
<g id="Layer_1">
	<linearGradient id="SVGID_1_" gradientUnits="userSpaceOnUse" x1="483.4659" y1="129.5762" x2="483.4659" y2="129.5762">
		<stop  offset="5.278564e-02" style="stop-color:#00AEEF"/>
		<stop  offset="0.3721" style="stop-color:#EC008C"/>
		<stop  offset="0.6781" style="stop-color:#00AEEF"/>
		<stop  offset="0.9394" style="stop-color:#EC008C"/>
	</linearGradient>
	<path class="st0" d="M483.5,129.6"/>
</g>
<g id="Layer_9">
	<g>
		<linearGradient id="SVGID_2_" gradientUnits="userSpaceOnUse" x1="21.4319" y1="212.582" x2="950.2475" y2="120.5121">
			<stop  offset="0" style="stop-color:#EC008C"/>
			<stop  offset="0.1528" style="stop-color:#D34699"/>
			<stop  offset="0.4906" style="stop-color:#917DBA"/>
			<stop  offset="0.9863" style="stop-color:#00ABED"/>
			<stop  offset="1" style="stop-color:#00AEEF"/>
		</linearGradient>
		<path class="st1" d="M13.8,250.1C87.4,148.9,153,66.4,241.1,76.4c113.3,12.9,144.4,134.5,249.1,134c107.8-0.5,130.6-187,243.1-198
			c53.2-5.2,101.9,71.2,213.1,238.1"/>
		<path class="st2" d="M11.8,248.6c14.3-21.7,29-43.1,44.6-64c15.7-20.8,32.2-41.2,51-59.9c9.4-9.3,19.4-18.1,30.2-26.2
			c10.8-8,22.4-15.1,35-20.7c12.6-5.6,26.1-9.5,39.9-11.2c6.9-0.8,13.9-1.1,20.9-0.8c3.5,0.2,7,0.4,10.4,0.8
			c3.4,0.4,6.8,0.9,10.2,1.4c13.6,2.3,26.9,6.4,39.5,12c12.6,5.6,24.4,12.6,35.4,20.5c11,7.8,21.3,16.4,31.1,25.1
			c9.9,8.7,19.3,17.6,28.9,26c9.5,8.4,19.2,16.5,29.2,23.5c10.1,7,20.6,12.9,31.7,17.1c11.1,4.1,22.7,6.5,34.6,7
			c3,0.1,6,0.2,8.8,0.1c2.8-0.1,5.7-0.4,8.5-0.8c5.6-0.8,11.1-2.3,16.4-4.4c10.6-4.1,20.5-10.7,29.5-18.7c9.1-7.9,17.4-17.2,25.2-27
			c7.9-9.8,15.3-20.2,22.7-30.7c7.4-10.5,14.8-21.2,22.6-31.8c7.7-10.6,15.8-21.1,24.8-31.2c8.9-10,18.7-19.6,29.9-27.8
			c11.1-8.2,23.7-15,37.2-19.1c6.8-2.1,13.7-3.4,20.7-4.2c1.7-0.2,3.7-0.3,5.5-0.4c1.9-0.1,3.8,0,5.7,0.1c3.8,0.3,7.5,0.9,11.1,1.8
			c7.3,1.9,13.9,5,20,8.6c6.1,3.6,11.7,7.8,16.8,12.3c5.2,4.4,10,9.1,14.6,14c4.6,4.8,9,9.8,13.3,14.8c8.5,10.1,16.5,20.5,24.2,31.1
			c7.7,10.5,15.1,21.3,22.4,32c14.6,21.6,28.7,43.3,42.6,65.2c13.9,21.9,27.7,43.8,41.4,65.9l-4.2,2.8
			c-30.1-42.2-59.5-84.9-90.1-126.6c-7.7-10.4-15.4-20.7-23.3-30.8c-7.9-10.1-16-20.1-24.5-29.5c-4.2-4.7-8.6-9.3-13.1-13.7
			c-4.5-4.4-9.1-8.6-13.9-12.4c-2.4-1.9-4.8-3.8-7.3-5.5c-2.5-1.7-5-3.3-7.5-4.8c-5.1-2.9-10.4-5.1-15.7-6.4c-2.7-0.6-5.4-1-8-1.1
			c-1.3-0.1-2.7-0.1-4,0c-1.4,0.1-2.6,0.2-4.1,0.4c-5.9,0.7-11.7,2-17.3,3.8c-11.2,3.6-21.7,9.5-31.3,16.9
			c-9.6,7.4-18.3,16.2-26.5,25.6c-8.2,9.5-15.8,19.6-23.1,30c-14.8,20.9-28.7,42.9-45.2,63.9c-8.3,10.5-17.2,20.7-27.5,30
			c-10.3,9.2-22.2,17.4-35.8,22.8c-6.7,2.7-13.8,4.7-21,5.8c-3.6,0.6-7.2,0.9-10.9,1.1c-3.7,0.2-7.1,0.1-10.6,0
			c-14-0.5-28.1-3.3-41.3-8.2c-13.2-4.9-25.4-11.8-36.6-19.6c-11.2-7.8-21.5-16.4-31.3-25.2c-9.8-8.8-19.3-17.6-28.8-26.1
			c-9.5-8.5-19.1-16.7-29.1-24c-10-7.3-20.5-13.7-31.5-18.9c-11-5.1-22.6-8.9-34.5-11.3c-3-0.6-6-1.1-9-1.5c-3-0.4-6-0.7-8.9-0.9
			c-6-0.4-11.9-0.3-17.9,0.3c-11.9,1.1-23.6,4.1-34.9,8.7c-11.3,4.5-22.1,10.6-32.4,17.7c-10.3,7-20.1,15-29.5,23.5
			c-9.4,8.5-18.4,17.6-27.2,26.9c-8.8,9.3-17.3,19-25.6,28.8c-16.7,19.6-32.8,39.9-49,60.2L11.8,248.6z"/>
	</g>
</g>
</svg>
