<?xml version="1.0" encoding="utf-8"?>
<!-- Generator: Adobe Illustrator 25.2.0, SVG Export Plug-In . SVG Version: 6.00 Build 0)  -->
<svg version="1.1" id="Layer_1" xmlns="http://www.w3.org/2000/svg" xmlns:xlink="http://www.w3.org/1999/xlink" x="0px" y="0px"
	 viewBox="0 0 133 154" style="enable-background:new 0 0 133 154;" xml:space="preserve">
<style type="text/css">
	.st0{fill:url(#SVGID_1_);stroke:#FFFFFF;stroke-width:2;stroke-miterlimit:10;}
	.st1{fill:url(#SVGID_2_);stroke:#FFFFFF;stroke-width:2;stroke-miterlimit:10;}
</style>
<linearGradient id="SVGID_1_" gradientUnits="userSpaceOnUse" x1="44.6689" y1="46.0149" x2="44.6689" y2="46.0149">
	<stop  offset="5.278564e-02" style="stop-color:#00AEEF"/>
	<stop  offset="0.3721" style="stop-color:#EC008C"/>
	<stop  offset="0.6781" style="stop-color:#00AEEF"/>
	<stop  offset="0.9394" style="stop-color:#EC008C"/>
</linearGradient>
<path class="st0" d="M44.7,46"/>
<linearGradient id="SVGID_2_" gradientUnits="userSpaceOnUse" x1="14.5377" y1="37.7972" x2="123.3138" y2="94.9384">
	<stop  offset="5.278564e-02" style="stop-color:#00AEEF"/>
	<stop  offset="0.3721" style="stop-color:#EC008C"/>
	<stop  offset="0.6781" style="stop-color:#00AEEF"/>
	<stop  offset="0.9394" style="stop-color:#EC008C"/>
</linearGradient>
<path class="st1" d="M130.2,57.2c-0.1-0.4-0.2-0.8-0.4-1.1c-0.2-0.4-0.3-0.7-0.5-1.1c-0.2-0.4-0.4-0.7-0.5-1.1
	c-0.4-0.7-0.8-1.4-1.3-2c-0.5-0.6-1-1.3-1.5-1.9c-2.1-2.4-4.7-4.4-7.4-5.9c-2.8-1.5-5.7-2.7-8.7-3.4c-3-0.7-6-1.1-9-1.3
	c-6-0.3-11.8,0.4-17.4,1.7c-0.5,0.1-1,0.3-1.5,0.4c0.2-0.1,0.3-0.2,0.5-0.2c4.8-2.2,9.7-3.9,14.8-5.2c5-1.3,10.3-2.2,15.7-3
	c2.7-0.4,5.5-0.8,8.3-1.2c0.7-0.1,1.4-0.2,2.1-0.3l2.1-0.3c0.4-0.1,0.7-0.1,1.1-0.2c0.4-0.1,0.7-0.1,1.1-0.2
	c0.7-0.1,1.5-0.3,2.2-0.4l0.2-1.5c-0.7-0.4-1.4-0.7-2-1c-0.7-0.3-1.4-0.6-2.1-0.9l-0.5-0.2l-0.5-0.2c-0.4-0.1-0.7-0.2-1.1-0.4
	c-0.4-0.1-0.7-0.2-1.1-0.3l-1.1-0.3c-2.9-0.8-5.9-1.4-8.9-1.7c-3-0.3-6.1-0.3-9.2-0.1c-3.1,0.2-6.1,0.8-9.2,1.6
	c-3,0.8-6,1.9-8.8,3.3c-2.1,1-4.1,2.2-5.9,3.6c1.3-1.5,2.6-3.1,3.9-4.6c2.8-3.2,5.8-6.3,8.8-9.5c0.8-0.8,1.5-1.6,2.3-2.4
	c0.8-0.8,1.6-1.6,2.3-2.4c0.8-0.8,1.6-1.6,2.3-2.5c0.8-0.8,1.6-1.7,2.3-2.7l-0.4-0.7c-1.2,0.2-2.3,0.6-3.5,0.9
	c-1.1,0.4-2.2,0.8-3.3,1.3c-1.1,0.5-2.1,1-3.2,1.5c-1,0.6-2.1,1.2-3.1,1.8c-1,0.7-2,1.3-2.9,2c-0.9,0.7-1.9,1.5-2.8,2.2
	c-0.9,0.8-1.8,1.6-2.6,2.4c-0.4,0.4-0.8,0.9-1.2,1.3c-0.4,0.4-0.8,0.9-1.2,1.3c-3.1,3.6-5.7,7.7-7.7,12c0,0.1-0.1,0.2-0.1,0.3
	c-0.4,0-0.8-0.1-1.2-0.1c-0.4,0-0.7,0-1,0c0-0.2-0.1-0.3-0.1-0.5c-0.2-0.6-0.4-1.1-0.5-1.7c-1.5-4.5-3.8-8.8-6.6-12.6
	c-0.3-0.5-0.7-1-1.1-1.4c-0.4-0.5-0.7-0.9-1.1-1.4c-0.8-0.9-1.6-1.8-2.4-2.7c-0.8-0.8-1.7-1.7-2.6-2.5c-0.9-0.8-1.8-1.5-2.7-2.3
	c-1-0.7-1.9-1.4-2.9-2.1c-1-0.6-2-1.2-3-1.8c-1.1-0.5-2.1-1.1-3.2-1.6c-1.1-0.5-2.2-0.9-3.4-1.2l-0.4,0.6c0.7,1,1.4,2,2.1,2.9
	c0.7,0.9,1.4,1.8,2.1,2.7c0.7,0.9,1.4,1.8,2.1,2.6c0.7,0.9,1.4,1.7,2.1,2.6c2.7,3.4,5.4,6.8,7.9,10.3c1.1,1.5,2.1,2.9,3.1,4.4
	c-1.8-1.8-3.7-3.5-5.8-5c-4.1-3.1-8.7-5.3-13.4-6.7c-0.1,0-0.3-0.1-0.4-0.1l-0.4-0.1c-0.3-0.1-0.6-0.1-0.9-0.2
	c-0.6-0.1-1.2-0.3-1.8-0.4c-1.2-0.2-2.4-0.4-3.6-0.5C29.2,16.1,28,16,26.8,16c-0.3,0-0.6,0-0.9,0L25,16.2c-0.6,0.1-1.2,0.1-1.8,0.2
	l-0.3,1.7c1,0.8,2,1.5,3.1,2.2c1,0.7,2,1.3,3,2c1,0.7,2,1.3,3,1.9c0.5,0.3,1,0.6,1.5,0.9c0.5,0.3,1,0.6,1.5,0.9
	c3.9,2.4,7.6,4.7,11.3,7.2c1.6,1.1,3.1,2.2,4.7,3.4c-2.2-0.6-4.4-1-6.7-1.3c-3.1-0.3-6.3-0.4-9.4-0.1c-3.1,0.3-6.2,0.8-9.1,1.7
	c-3,0.8-5.8,1.9-8.6,3.2c-2.7,1.3-5.3,2.9-7.8,4.6l-0.9,0.7c-0.3,0.2-0.6,0.5-0.9,0.7c-0.3,0.2-0.6,0.5-0.9,0.7l-0.4,0.4l-0.4,0.4
	c-0.6,0.5-1.1,1-1.7,1.6c-0.5,0.5-1.1,1.1-1.6,1.7l0.7,1.3C4,52,4.7,51.9,5.4,51.8c0.4-0.1,0.7-0.1,1.1-0.2c0.4-0.1,0.7-0.1,1.1-0.2
	l2.1-0.4c0.7-0.2,1.4-0.3,2.1-0.4c2.8-0.6,5.5-1.2,8.2-1.7c5.3-1.1,10.5-2,15.7-2.6c5.2-0.5,10.3-0.6,15.6-0.2
	c1.1,0.1,2.3,0.2,3.4,0.3c0,0,0,0.1,0,0.1c0,0.3,0,0.5,0,0.7c-0.5,0-0.8,0-0.7,0l0.7,0.1c0,0.1,0,0.1,0,0.2c-2.4,0-4.8,0.2-7.3,0.4
	c-6.1,0.7-12.2,2.1-18.2,4.4c-0.7,0.3-1.5,0.6-2.2,0.9c-0.4,0.2-0.7,0.3-1.1,0.5c-0.4,0.2-0.7,0.3-1.1,0.5c-0.4,0.2-0.7,0.4-1.1,0.5
	c-0.4,0.2-0.7,0.4-1.1,0.6l-1.1,0.6c-0.4,0.2-0.7,0.4-1.1,0.6c-2.8,1.7-5.4,3.7-7.8,6.1c-2.3,2.4-4.4,5.2-5.9,8.2
	c-0.2,0.4-0.4,0.8-0.5,1.2c-0.2,0.4-0.3,0.8-0.5,1.2c-0.1,0.4-0.3,0.8-0.4,1.2c-0.1,0.2-0.1,0.4-0.2,0.6l-0.2,0.6
	c-0.1,0.4-0.2,0.8-0.3,1.2C5,77.1,4.9,77.6,4.9,78c0,0.2-0.1,0.4-0.1,0.6l0,0.6c0,0.4,0,0.8,0,1.3l1.9,0.9c2.6-2,4.8-3.7,7.1-5.2
	l0.8-0.6c0.3-0.2,0.6-0.4,0.9-0.5c0.6-0.4,1.1-0.7,1.7-1.1c0.3-0.2,0.6-0.3,0.8-0.5c0.3-0.2,0.6-0.3,0.8-0.5c0.6-0.3,1.1-0.7,1.7-1
	c2.3-1.3,4.6-2.5,7-3.7c1.2-0.6,2.4-1.2,3.6-1.8c0.6-0.3,1.2-0.6,1.8-0.9c0.6-0.3,1.2-0.6,1.9-0.9c5-2.3,10.2-4.4,15.5-6.7
	c2.7-1.1,5.4-2.3,8.1-3.5c0.1,0,0.2-0.1,0.3-0.1c1.8,1.6,4.1,2.8,6.6,3.3c2.7,20.4,10.3,51.4,18.7,83.8l-0.2,8.4l25.5,1.1
	c-16.6-25.6-29.4-56.4-38-93.1c1.7-0.3,3.2-0.8,4.6-1.6c0.1,0.1,0.2,0.1,0.4,0.2c0.4,0.2,0.9,0.5,1.3,0.7c3.5,1.9,6.8,3.8,10.1,5.8
	c3.3,2,6.4,4.2,9.5,6.6c1.6,1.2,3.1,2.4,4.7,3.7c0.4,0.3,0.8,0.7,1.2,1l0.6,0.5l0.3,0.2l0.3,0.3c0.8,0.7,1.6,1.3,2.5,2l1.1-0.8
	c-0.3-1.1-0.7-2.1-1.1-3.1l-0.1-0.4l-0.2-0.4l-0.3-0.7c-0.2-0.5-0.5-1-0.7-1.5c-1-1.9-2.2-3.8-3.6-5.6c-2.7-3.5-6.1-6.5-9.8-9
	c-2.5-1.6-5.1-3-7.9-4c0.1,0,0.3,0,0.4,0c5.3,0.4,10.5,0.8,15.4,1.3c2.5,0.3,4.9,0.6,7.3,1c2.4,0.4,4.7,0.8,7,1.3
	c0.6,0.1,1.2,0.3,1.7,0.4c0.3,0.1,0.6,0.1,0.9,0.2l0.4,0.1l0.4,0.1l0.9,0.2c0.3,0.1,0.6,0.2,0.9,0.2c0.6,0.1,1.2,0.3,1.8,0.5
	c2.4,0.7,4.9,1.6,7.7,2.7l1.6-1.4C130.4,58,130.3,57.6,130.2,57.2z"/>
</svg>
